# xmcd CD database file
#
# Track frame offsets:
#	150
#	23062
#	41635
#	63132
#	87827
#	106397
#	129395
#	151555
#	170012
#	190995
#
# Disc length: 2745 seconds
#
# Revision: 0
# Processed by: cddbd v1.5.1PL2 Copyright (c) Steve Scherf et al.
# Submitted via: CDex 1.51
#
DISCID=740ab70a
DTITLE=及川光博 - 夜想曲〜ノクターン〜
DYEAR=2005
DGENRE=JPop
TTITLE0=pillow talk
TTITLE1=あなたしかいない
TTITLE2=言えないよ
TTITLE3=Two of us
TTITLE4=彼女の比率
TTITLE5=Lazy
TTITLE6=雨音
TTITLE7=promise
TTITLE8=愛のメモリー
TTITLE9=close your eyes
EXTD=YEAR: 2005
EXTT0=
EXTT1=
EXTT2=
EXTT3=
EXTT4=
EXTT5=
EXTT6=
EXTT7=
EXTT8=
EXTT9=
PLAYORDER=
